# Blender 4.0.1
# www.blender.org
mtllib FenceClosedOff.mtl
o Cube
v -0.148315 -1.000000 0.188919
v -0.148315 1.000000 0.188919
v -0.148315 -1.000000 -0.188919
v -0.148315 1.000000 -0.188919
v 0.148315 -1.000000 0.188919
v 0.148315 1.000000 0.188919
v 0.148315 -1.000000 -0.188919
v 0.148315 1.000000 -0.188919
v 0.000000 1.283381 0.000000
v -0.148315 0.539396 0.188919
v -0.087412 0.478493 -0.188919
v 0.087412 0.478493 -0.188919
v 0.148315 0.539396 0.188919
v -0.087412 0.327279 -0.188919
v 0.087412 0.327279 -0.188919
v 0.148315 0.266376 0.188919
v -0.148315 0.266376 0.188919
v -0.098251 -0.244917 -0.188919
v 0.098251 -0.244917 -0.188919
v 0.148315 -0.194853 0.188919
v -0.148315 -0.194853 0.188919
v -0.098251 -0.404899 -0.188919
v 0.098251 -0.404899 -0.188919
v 0.148315 -0.454962 0.188919
v -0.148315 -0.454962 0.188919
v -0.148315 0.539396 -0.188919
v 0.148315 0.539396 -0.188919
v -0.148315 0.266376 -0.188919
v 0.148315 0.266376 -0.188919
v -0.148315 -0.194853 -0.188919
v 0.148315 -0.194853 -0.188919
v -0.148315 -0.454962 -0.188919
v 0.148315 -0.454962 -0.188919
v -0.087412 0.478493 -1.635988
v 0.087412 0.478493 -1.635988
v -0.087412 0.327279 -1.635988
v 0.087412 0.327279 -1.635988
v -0.098251 -0.244917 -1.635988
v 0.098251 -0.244917 -1.635988
v -0.098251 -0.404899 -1.635988
v 0.098251 -0.404899 -1.635988
vn -1.0000 -0.0000 -0.0000
vn -0.0000 -0.0000 -1.0000
vn 1.0000 -0.0000 -0.0000
vn -0.0000 -0.0000 1.0000
vn -0.0000 -1.0000 -0.0000
vn -0.0000 0.5547 -0.8321
vn 0.8860 0.4637 -0.0000
vn -0.8860 0.4637 -0.0000
vn -0.0000 0.5547 0.8321
vn -0.0000 1.0000 -0.0000
vt 0.567425 0.000000
vt 0.625000 0.000000
vt 0.625000 0.250000
vt 0.567425 0.250000
vt 0.625000 0.500000
vt 0.567425 0.500000
vt 0.625000 0.750000
vt 0.567425 0.750000
vt 0.625000 1.000000
vt 0.567425 1.000000
vt 0.125000 0.500000
vt 0.375000 0.500000
vt 0.375000 0.750000
vt 0.125000 0.750000
vt 0.533297 0.750000
vt 0.533297 1.000000
vt 0.533297 0.500000
vt 0.559812 0.301329
vt 0.559812 0.448671
vt 0.533297 0.000000
vt 0.533297 0.250000
vt 0.475643 0.000000
vt 0.475643 0.250000
vt 0.475643 0.500000
vt 0.475643 0.750000
vt 0.475643 1.000000
vt 0.443130 0.750000
vt 0.443130 1.000000
vt 0.443130 0.500000
vt 0.449388 0.457806
vt 0.449388 0.292194
vt 0.443130 0.000000
vt 0.443130 0.250000
vt 0.375000 0.000000
vt 0.375000 0.250000
vt 0.375000 1.000000
vt 0.540910 0.301329
vt 0.540910 0.448671
vt 0.469385 0.457806
vt 0.469385 0.292194
s 0
f 10/1/1 2/2/1 4/3/1 26/4/1
f 26/4/2 4/3/2 8/5/2 27/6/2
f 27/6/3 8/5/3 6/7/3 13/8/3
f 13/8/4 6/7/4 2/9/4 10/10/4
f 3/11/5 7/12/5 5/13/5 1/14/5
f 8/5/6 4/3/6 9/5/6
f 6/7/7 8/5/7 9/7/7
f 4/3/8 2/2/8 9/3/8
f 2/9/9 6/7/9 9/9/9
f 16/15/4 13/8/4 10/10/4 17/16/4
f 29/17/3 27/6/3 13/8/3 16/15/3
f 11/18/10 12/19/10 35/19/10 34/18/10
f 17/20/1 10/1/1 26/4/1 28/21/1
f 21/22/1 17/20/1 28/21/1 30/23/1
f 30/23/2 28/21/2 29/17/2 31/24/2
f 31/24/3 29/17/3 16/15/3 20/25/3
f 20/25/4 16/15/4 17/16/4 21/26/4
f 24/27/4 20/25/4 21/26/4 25/28/4
f 33/29/3 31/24/3 20/25/3 24/27/3
f 23/30/5 22/31/5 40/31/5 41/30/5
f 25/32/1 21/22/1 30/23/1 32/33/1
f 1/34/1 25/32/1 32/33/1 3/35/1
f 3/35/2 32/33/2 33/29/2 7/12/2
f 7/12/3 33/29/3 24/27/3 5/13/3
f 5/13/4 24/27/4 25/28/4 1/36/4
f 12/19/2 11/18/2 26/4/2 27/6/2
f 11/18/2 14/37/2 28/21/2 26/4/2
f 15/38/2 12/19/2 27/6/2 29/17/2
f 14/37/2 15/38/2 29/17/2 28/21/2
f 19/39/2 18/40/2 30/23/2 31/24/2
f 18/40/2 22/31/2 32/33/2 30/23/2
f 23/30/2 19/39/2 31/24/2 33/29/2
f 22/31/2 23/30/2 33/29/2 32/33/2
f 36/37/2 34/18/2 35/19/2 37/38/2
f 40/31/2 38/40/2 39/39/2 41/30/2
f 22/31/1 18/40/1 38/40/1 40/31/1
f 15/38/5 14/37/5 36/37/5 37/38/5
f 14/37/1 11/18/1 34/18/1 36/37/1
f 19/39/3 23/30/3 41/30/3 39/39/3
f 18/40/10 19/39/10 39/39/10 38/40/10
f 12/19/3 15/38/3 37/38/3 35/19/3
o Cube.001
v -0.148315 -1.000000 -1.649532
v -0.148315 1.000000 -1.649532
v -0.148315 -1.000000 -2.027369
v -0.148315 1.000000 -2.027369
v 0.148315 -1.000000 -1.649532
v 0.148315 1.000000 -1.649532
v 0.148315 -1.000000 -2.027369
v 0.148315 1.000000 -2.027369
v 0.000000 1.283381 -1.838451
v -0.148315 0.539396 -1.649532
v -0.087412 0.478493 -2.027369
v 0.087412 0.478493 -2.027369
v 0.148315 0.539396 -1.649532
v -0.087412 0.327279 -2.027369
v 0.087412 0.327279 -2.027369
v 0.148315 0.266376 -1.649532
v -0.148315 0.266376 -1.649532
v -0.098251 -0.244917 -2.027369
v 0.098251 -0.244917 -2.027369
v 0.148315 -0.194853 -1.649532
v -0.148315 -0.194853 -1.649532
v -0.098251 -0.404899 -2.027369
v 0.098251 -0.404899 -2.027369
v 0.148315 -0.454962 -1.649532
v -0.148315 -0.454962 -1.649532
v -0.148315 0.539396 -2.027369
v 0.148315 0.539396 -2.027369
v -0.148315 0.266376 -2.027369
v 0.148315 0.266376 -2.027369
v -0.148315 -0.194853 -2.027369
v 0.148315 -0.194853 -2.027369
v -0.148315 -0.454962 -2.027369
v 0.148315 -0.454962 -2.027369
v -0.087412 0.478493 -3.474438
v 0.087412 0.478493 -3.474438
v -0.087412 0.327279 -3.474438
v 0.087412 0.327279 -3.474438
v -0.098251 -0.244917 -3.474438
v 0.098251 -0.244917 -3.474438
v -0.098251 -0.404899 -3.474438
v 0.098251 -0.404899 -3.474438
vn -1.0000 -0.0000 -0.0000
vn -0.0000 -0.0000 -1.0000
vn 1.0000 -0.0000 -0.0000
vn -0.0000 -0.0000 1.0000
vn -0.0000 -1.0000 -0.0000
vn -0.0000 0.5547 -0.8321
vn 0.8860 0.4637 -0.0000
vn -0.8860 0.4637 -0.0000
vn -0.0000 0.5547 0.8321
vn -0.0000 1.0000 -0.0000
vt 0.567425 0.000000
vt 0.625000 0.000000
vt 0.625000 0.250000
vt 0.567425 0.250000
vt 0.625000 0.500000
vt 0.567425 0.500000
vt 0.625000 0.750000
vt 0.567425 0.750000
vt 0.625000 1.000000
vt 0.567425 1.000000
vt 0.125000 0.500000
vt 0.375000 0.500000
vt 0.375000 0.750000
vt 0.125000 0.750000
vt 0.533297 0.750000
vt 0.533297 1.000000
vt 0.533297 0.500000
vt 0.559812 0.301329
vt 0.559812 0.448671
vt 0.533297 0.000000
vt 0.533297 0.250000
vt 0.475643 0.000000
vt 0.475643 0.250000
vt 0.475643 0.500000
vt 0.475643 0.750000
vt 0.475643 1.000000
vt 0.443130 0.750000
vt 0.443130 1.000000
vt 0.443130 0.500000
vt 0.449388 0.457806
vt 0.449388 0.292194
vt 0.443130 0.000000
vt 0.443130 0.250000
vt 0.375000 0.000000
vt 0.375000 0.250000
vt 0.375000 1.000000
vt 0.540910 0.301329
vt 0.540910 0.448671
vt 0.469385 0.457806
vt 0.469385 0.292194
s 0
f 51/41/11 43/42/11 45/43/11 67/44/11
f 67/44/12 45/43/12 49/45/12 68/46/12
f 68/46/13 49/45/13 47/47/13 54/48/13
f 54/48/14 47/47/14 43/49/14 51/50/14
f 44/51/15 48/52/15 46/53/15 42/54/15
f 49/45/16 45/43/16 50/45/16
f 47/47/17 49/45/17 50/47/17
f 45/43/18 43/42/18 50/43/18
f 43/49/19 47/47/19 50/49/19
f 57/55/14 54/48/14 51/50/14 58/56/14
f 70/57/13 68/46/13 54/48/13 57/55/13
f 52/58/20 53/59/20 76/59/20 75/58/20
f 58/60/11 51/41/11 67/44/11 69/61/11
f 62/62/11 58/60/11 69/61/11 71/63/11
f 71/63/12 69/61/12 70/57/12 72/64/12
f 72/64/13 70/57/13 57/55/13 61/65/13
f 61/65/14 57/55/14 58/56/14 62/66/14
f 65/67/14 61/65/14 62/66/14 66/68/14
f 74/69/13 72/64/13 61/65/13 65/67/13
f 64/70/15 63/71/15 81/71/15 82/70/15
f 66/72/11 62/62/11 71/63/11 73/73/11
f 42/74/11 66/72/11 73/73/11 44/75/11
f 44/75/12 73/73/12 74/69/12 48/52/12
f 48/52/13 74/69/13 65/67/13 46/53/13
f 46/53/14 65/67/14 66/68/14 42/76/14
f 53/59/12 52/58/12 67/44/12 68/46/12
f 52/58/12 55/77/12 69/61/12 67/44/12
f 56/78/12 53/59/12 68/46/12 70/57/12
f 55/77/12 56/78/12 70/57/12 69/61/12
f 60/79/12 59/80/12 71/63/12 72/64/12
f 59/80/12 63/71/12 73/73/12 71/63/12
f 64/70/12 60/79/12 72/64/12 74/69/12
f 63/71/12 64/70/12 74/69/12 73/73/12
f 77/77/12 75/58/12 76/59/12 78/78/12
f 81/71/12 79/80/12 80/79/12 82/70/12
f 63/71/11 59/80/11 79/80/11 81/71/11
f 56/78/15 55/77/15 77/77/15 78/78/15
f 55/77/11 52/58/11 75/58/11 77/77/11
f 60/79/13 64/70/13 82/70/13 80/79/13
f 59/80/20 60/79/20 80/79/20 79/80/20
f 53/59/13 56/78/13 78/78/13 76/59/13
o Cube.002
v -0.148315 -1.000000 -3.430924
v -0.148315 1.000000 -3.430924
v -0.148315 -1.000000 -3.808761
v -0.148315 1.000000 -3.808761
v 0.148315 -1.000000 -3.430924
v 0.148315 1.000000 -3.430924
v 0.148315 -1.000000 -3.808761
v 0.148315 1.000000 -3.808761
v 0.000000 1.283381 -3.619843
v -0.148315 0.539396 -3.430924
v -0.087412 0.478493 -3.808761
v 0.087412 0.478493 -3.808761
v 0.148315 0.539396 -3.430924
v -0.087412 0.327279 -3.808761
v 0.087412 0.327279 -3.808761
v 0.148315 0.266376 -3.430924
v -0.148315 0.266376 -3.430924
v -0.098251 -0.244917 -3.808761
v 0.098251 -0.244917 -3.808761
v 0.148315 -0.194853 -3.430924
v -0.148315 -0.194853 -3.430924
v -0.098251 -0.404899 -3.808761
v 0.098251 -0.404899 -3.808761
v 0.148315 -0.454962 -3.430924
v -0.148315 -0.454962 -3.430924
v -0.148315 0.539396 -3.808761
v 0.148315 0.539396 -3.808761
v -0.148315 0.266376 -3.808761
v 0.148315 0.266376 -3.808761
v -0.148315 -0.194853 -3.808761
v 0.148315 -0.194853 -3.808761
v -0.148315 -0.454962 -3.808761
v 0.148315 -0.454962 -3.808761
v -0.087412 0.478493 -5.255830
v 0.087412 0.478493 -5.255830
v -0.087412 0.327279 -5.255830
v 0.087412 0.327279 -5.255830
v -0.098251 -0.244917 -5.255830
v 0.098251 -0.244917 -5.255830
v -0.098251 -0.404899 -5.255830
v 0.098251 -0.404899 -5.255830
vn -1.0000 -0.0000 -0.0000
vn -0.0000 -0.0000 -1.0000
vn 1.0000 -0.0000 -0.0000
vn -0.0000 -0.0000 1.0000
vn -0.0000 -1.0000 -0.0000
vn -0.0000 0.5547 -0.8321
vn 0.8860 0.4637 -0.0000
vn -0.8860 0.4637 -0.0000
vn -0.0000 0.5547 0.8321
vn -0.0000 1.0000 -0.0000
vt 0.567425 0.000000
vt 0.625000 0.000000
vt 0.625000 0.250000
vt 0.567425 0.250000
vt 0.625000 0.500000
vt 0.567425 0.500000
vt 0.625000 0.750000
vt 0.567425 0.750000
vt 0.625000 1.000000
vt 0.567425 1.000000
vt 0.125000 0.500000
vt 0.375000 0.500000
vt 0.375000 0.750000
vt 0.125000 0.750000
vt 0.533297 0.750000
vt 0.533297 1.000000
vt 0.533297 0.500000
vt 0.559812 0.301329
vt 0.559812 0.448671
vt 0.533297 0.000000
vt 0.533297 0.250000
vt 0.475643 0.000000
vt 0.475643 0.250000
vt 0.475643 0.500000
vt 0.475643 0.750000
vt 0.475643 1.000000
vt 0.443130 0.750000
vt 0.443130 1.000000
vt 0.443130 0.500000
vt 0.449388 0.457806
vt 0.449388 0.292194
vt 0.443130 0.000000
vt 0.443130 0.250000
vt 0.375000 0.000000
vt 0.375000 0.250000
vt 0.375000 1.000000
vt 0.540910 0.301329
vt 0.540910 0.448671
vt 0.469385 0.457806
vt 0.469385 0.292194
s 0
f 92/81/21 84/82/21 86/83/21 108/84/21
f 108/84/22 86/83/22 90/85/22 109/86/22
f 109/86/23 90/85/23 88/87/23 95/88/23
f 95/88/24 88/87/24 84/89/24 92/90/24
f 85/91/25 89/92/25 87/93/25 83/94/25
f 90/85/26 86/83/26 91/85/26
f 88/87/27 90/85/27 91/87/27
f 86/83/28 84/82/28 91/83/28
f 84/89/29 88/87/29 91/89/29
f 98/95/24 95/88/24 92/90/24 99/96/24
f 111/97/23 109/86/23 95/88/23 98/95/23
f 93/98/30 94/99/30 117/99/30 116/98/30
f 99/100/21 92/81/21 108/84/21 110/101/21
f 103/102/21 99/100/21 110/101/21 112/103/21
f 112/103/22 110/101/22 111/97/22 113/104/22
f 113/104/23 111/97/23 98/95/23 102/105/23
f 102/105/24 98/95/24 99/96/24 103/106/24
f 106/107/24 102/105/24 103/106/24 107/108/24
f 115/109/23 113/104/23 102/105/23 106/107/23
f 105/110/25 104/111/25 122/111/25 123/110/25
f 107/112/21 103/102/21 112/103/21 114/113/21
f 83/114/21 107/112/21 114/113/21 85/115/21
f 85/115/22 114/113/22 115/109/22 89/92/22
f 89/92/23 115/109/23 106/107/23 87/93/23
f 87/93/24 106/107/24 107/108/24 83/116/24
f 94/99/22 93/98/22 108/84/22 109/86/22
f 93/98/22 96/117/22 110/101/22 108/84/22
f 97/118/22 94/99/22 109/86/22 111/97/22
f 96/117/22 97/118/22 111/97/22 110/101/22
f 101/119/22 100/120/22 112/103/22 113/104/22
f 100/120/22 104/111/22 114/113/22 112/103/22
f 105/110/22 101/119/22 113/104/22 115/109/22
f 104/111/22 105/110/22 115/109/22 114/113/22
f 118/117/22 116/98/22 117/99/22 119/118/22
f 122/111/22 120/120/22 121/119/22 123/110/22
f 104/111/21 100/120/21 120/120/21 122/111/21
f 97/118/25 96/117/25 118/117/25 119/118/25
f 96/117/21 93/98/21 116/98/21 118/117/21
f 101/119/23 105/110/23 123/110/23 121/119/23
f 100/120/30 101/119/30 121/119/30 120/120/30
f 94/99/23 97/118/23 119/118/23 117/99/23
o Cube.003
v -0.148315 -1.000000 -5.183837
v -0.148315 1.000000 -5.183837
v -0.148315 -1.000000 -5.561675
v -0.148315 1.000000 -5.561675
v 0.148315 -1.000000 -5.183837
v 0.148315 1.000000 -5.183837
v 0.148315 -1.000000 -5.561675
v 0.148315 1.000000 -5.561675
v 0.000000 1.283381 -5.372756
v -0.148315 0.539396 -5.183837
v 0.148315 0.539396 -5.183837
v 0.148315 0.266376 -5.183837
v -0.148315 0.266376 -5.183837
v 0.148315 -0.194853 -5.183837
v -0.148315 -0.194853 -5.183837
v 0.148315 -0.454962 -5.183837
v -0.148315 -0.454962 -5.183837
v -0.148315 0.539396 -5.561675
v 0.148315 0.539396 -5.561675
v -0.148315 0.266376 -5.561675
v 0.148315 0.266376 -5.561675
v -0.148315 -0.194853 -5.561675
v 0.148315 -0.194853 -5.561675
v -0.148315 -0.454962 -5.561675
v 0.148315 -0.454962 -5.561675
vn -1.0000 -0.0000 -0.0000
vn -0.0000 -0.0000 -1.0000
vn 1.0000 -0.0000 -0.0000
vn -0.0000 -0.0000 1.0000
vn -0.0000 -1.0000 -0.0000
vn -0.0000 0.5547 -0.8321
vn 0.8860 0.4637 -0.0000
vn -0.8860 0.4637 -0.0000
vn -0.0000 0.5547 0.8321
vt 0.567425 0.000000
vt 0.625000 0.000000
vt 0.625000 0.250000
vt 0.567425 0.250000
vt 0.625000 0.500000
vt 0.567425 0.500000
vt 0.625000 0.750000
vt 0.567425 0.750000
vt 0.625000 1.000000
vt 0.567425 1.000000
vt 0.125000 0.500000
vt 0.375000 0.500000
vt 0.375000 0.750000
vt 0.125000 0.750000
vt 0.533297 0.750000
vt 0.533297 1.000000
vt 0.533297 0.500000
vt 0.533297 0.000000
vt 0.533297 0.250000
vt 0.475643 0.000000
vt 0.475643 0.250000
vt 0.475643 0.500000
vt 0.475643 0.750000
vt 0.475643 1.000000
vt 0.443130 0.750000
vt 0.443130 1.000000
vt 0.443130 0.500000
vt 0.443130 0.000000
vt 0.443130 0.250000
vt 0.375000 0.000000
vt 0.375000 0.250000
vt 0.375000 1.000000
s 0
f 133/121/31 125/122/31 127/123/31 141/124/31
f 141/124/32 127/123/32 131/125/32 142/126/32
f 142/126/33 131/125/33 129/127/33 134/128/33
f 134/128/34 129/127/34 125/129/34 133/130/34
f 126/131/35 130/132/35 128/133/35 124/134/35
f 131/125/36 127/123/36 132/125/36
f 129/127/37 131/125/37 132/127/37
f 127/123/38 125/122/38 132/123/38
f 125/129/39 129/127/39 132/129/39
f 135/135/34 134/128/34 133/130/34 136/136/34
f 144/137/33 142/126/33 134/128/33 135/135/33
f 136/138/31 133/121/31 141/124/31 143/139/31
f 138/140/31 136/138/31 143/139/31 145/141/31
f 145/141/32 143/139/32 144/137/32 146/142/32
f 146/142/33 144/137/33 135/135/33 137/143/33
f 137/143/34 135/135/34 136/136/34 138/144/34
f 139/145/34 137/143/34 138/144/34 140/146/34
f 148/147/33 146/142/33 137/143/33 139/145/33
f 140/148/31 138/140/31 145/141/31 147/149/31
f 124/150/31 140/148/31 147/149/31 126/151/31
f 126/151/32 147/149/32 148/147/32 130/132/32
f 130/132/33 148/147/33 139/145/33 128/133/33
f 128/133/34 139/145/34 140/146/34 124/152/34
f 146/142/32 148/147/32 147/149/32 145/141/32
f 142/126/32 144/137/32 143/139/32 141/124/32
